<svg width="45" height="33" viewBox="0 0 45 33" fill="none" xmlns="http://www.w3.org/2000/svg">
<path d="M39 18.45C38.5222 23.2507 34.4618 27 29.5235 27C24.2638 27 20 22.7467 20 17.5C20 12.2533 24.2638 8 29.5235 8C29.8449 8 30.1626 8.01588 30.4759 8.04691" stroke="#0FBABC" stroke-width="2.5" stroke-linecap="round"/>
<path d="M14.0881 12.1818C13.9645 11.1383 13.4633 10.3281 12.5845 9.75142C11.7057 9.17472 10.6278 8.88636 9.35085 8.88636C8.41714 8.88636 7.60014 9.0374 6.89986 9.33949C6.20644 9.64157 5.66406 10.0569 5.27273 10.5856C4.88826 11.1142 4.69602 11.715 4.69602 12.3878C4.69602 12.9508 4.8299 13.4348 5.09766 13.8398C5.37228 14.238 5.72242 14.571 6.14808 14.8388C6.57375 15.0997 7.02 15.3159 7.48686 15.4876C7.95372 15.6523 8.38281 15.7862 8.77415 15.8892L10.9162 16.4659C11.4654 16.6101 12.0765 16.8092 12.7493 17.0632C13.429 17.3172 14.0778 17.6639 14.6957 18.1033C15.3204 18.5359 15.8353 19.092 16.2404 19.7717C16.6455 20.4513 16.848 21.2855 16.848 22.2741C16.848 23.4138 16.5494 24.4437 15.9521 25.3636C15.3616 26.2836 14.4966 27.0148 13.3569 27.5572C12.2241 28.0996 10.8475 28.3707 9.22727 28.3707C7.71686 28.3707 6.40897 28.127 5.30362 27.6396C4.20514 27.1521 3.34008 26.4724 2.70845 25.6005C2.08369 24.7286 1.73011 23.7159 1.64773 22.5625H4.28409C4.35275 23.3589 4.6205 24.018 5.08736 24.5398C5.56108 25.0547 6.15838 25.4392 6.87926 25.6932C7.60701 25.9403 8.38968 26.0639 9.22727 26.0639C10.2022 26.0639 11.0775 25.906 11.8533 25.5902C12.6291 25.2675 13.2436 24.8213 13.6967 24.2514C14.1499 23.6747 14.3764 23.0019 14.3764 22.233C14.3764 21.5327 14.1808 20.9628 13.7894 20.5234C13.3981 20.084 12.8832 19.727 12.2447 19.4524C11.6062 19.1778 10.9162 18.9375 10.1747 18.7315L7.57955 17.9901C5.93182 17.5163 4.62737 16.8401 3.66619 15.9613C2.70502 15.0825 2.22443 13.9325 2.22443 12.5114C2.22443 11.3305 2.54368 10.3007 3.18217 9.42188C3.82753 8.53622 4.69259 7.84967 5.77734 7.36222C6.86896 6.8679 8.08759 6.62074 9.43324 6.62074C10.7926 6.62074 12.0009 6.86446 13.0582 7.35192C14.1155 7.8325 14.9531 8.49159 15.571 9.32919C16.1958 10.1668 16.5253 11.1177 16.5597 12.1818H14.0881Z" fill="white"/>
<line x1="35.8141" y1="24.8933" x2="42.8933" y2="31.1859" stroke="#0FBABC" stroke-width="2.57" stroke-linecap="round"/>
<path fill-rule="evenodd" clip-rule="evenodd" d="M30 13C28.8065 13 27.839 13.9299 27.839 15.0769C27.839 16.224 28.8065 17.1538 30 17.1538C31.1935 17.1538 32.161 16.224 32.161 15.0769C32.161 13.9299 31.1935 13 30 13ZM28.5593 15.0769C28.5593 14.3122 29.2043 13.6923 30 13.6923C30.7957 13.6923 31.4407 14.3122 31.4407 15.0769C31.4407 15.8416 30.7957 16.4615 30 16.4615C29.2043 16.4615 28.5593 15.8416 28.5593 15.0769ZM30 17.5C28.3419 17.5 27.3168 17.9957 26.7168 18.7056C26.1285 19.4016 26.0018 20.2424 26 20.8394C25.9979 21.5567 26.6467 22 27.2959 22H32.7041C33.3533 22 34.0021 21.5567 34 20.8394C33.9982 20.2424 33.8716 19.4016 33.2833 18.7056C32.6832 17.9957 31.6581 17.5 30 17.5ZM26.7203 20.8414C26.7219 20.3199 26.8351 19.6636 27.2759 19.1421C27.7049 18.6345 28.4981 18.1923 30 18.1923C31.5019 18.1923 32.2951 18.6345 32.7241 19.1421C33.1649 19.6636 33.2781 20.3199 33.2797 20.8414C33.2804 21.0855 33.0553 21.3077 32.7041 21.3077H27.2959C26.9447 21.3077 26.7196 21.0855 26.7203 20.8414Z" fill="#0FBABC"/>
</svg>
